<svg xmlns="http://www.w3.org/2000/svg" width="1600" height="900" viewBox="0 0 1600 900"><defs><linearGradient id="bg" x1="0" y1="0" x2="1" y2="1"><stop offset="0" stop-color="#081011"/><stop offset=".55" stop-color="#1c2824"/><stop offset="1" stop-color="#3a4032"/></linearGradient><radialGradient id="glow"><stop offset="0" stop-color="#6fd2d0" stop-opacity=".35"/><stop offset="1" stop-color="#000" stop-opacity="0"/></radialGradient><filter id="grain"><feTurbulence type="fractalNoise" baseFrequency=".7" numOctaves="2" seed="7"/><feColorMatrix type="saturate" values="0"/><feComponentTransfer><feFuncA type="table" tableValues="0 .10"/></feComponentTransfer></filter><filter id="blur"><feGaussianBlur stdDeviation="14"/></filter><marker id="arrow" markerWidth="10" markerHeight="10" refX="8" refY="3" orient="auto"><path d="M0,0 L0,6 L9,3 z" fill="#5dc4cc"/></marker></defs><rect width="1600" height="900" fill="url(#bg)"/><path d="M0 180 C 300 100, 600 260, 900 170 S 1350 240,1600 160" fill="none" stroke="#9aa57a" stroke-opacity=".18" stroke-width="3"/><path d="M0 290 C 300 220, 600 350, 900 290 S 1350 330,1600 270" fill="none" stroke="#9aa57a" stroke-opacity=".18" stroke-width="3"/><path d="M0 400 C 300 340, 600 440, 900 410 S 1350 420,1600 380" fill="none" stroke="#9aa57a" stroke-opacity=".18" stroke-width="3"/><path d="M0 510 C 300 460, 600 530, 900 530 S 1350 510,1600 490" fill="none" stroke="#9aa57a" stroke-opacity=".18" stroke-width="3"/><path d="M0 620 C 300 580, 600 620, 900 650 S 1350 600,1600 600" fill="none" stroke="#9aa57a" stroke-opacity=".18" stroke-width="3"/><ellipse cx="180" cy="520" rx="160" ry="70" fill="none" stroke="#d0d4ad" stroke-opacity=".12" stroke-width="2"/><ellipse cx="420" cy="640" rx="195" ry="90" fill="none" stroke="#d0d4ad" stroke-opacity=".12" stroke-width="2"/><ellipse cx="660" cy="520" rx="230" ry="70" fill="none" stroke="#d0d4ad" stroke-opacity=".12" stroke-width="2"/><ellipse cx="900" cy="640" rx="160" ry="90" fill="none" stroke="#d0d4ad" stroke-opacity=".12" stroke-width="2"/><ellipse cx="1140" cy="520" rx="195" ry="70" fill="none" stroke="#d0d4ad" stroke-opacity=".12" stroke-width="2"/><ellipse cx="1380" cy="640" rx="230" ry="90" fill="none" stroke="#d0d4ad" stroke-opacity=".12" stroke-width="2"/><rect width="1600" height="900" filter="url(#grain)" opacity=".30"/><rect x="55" y="45" width="305" height="48" rx="16" fill="#556B2F" fill-opacity="1" stroke="#556B2F" stroke-width="0"/><text x="78" y="78" font-family="DejaVu Sans, Arial, sans-serif" font-size="22" font-weight="700" fill="#f4f6f2" text-anchor="start">ТЕМА 4 · ЛЕКЦІЯ 4.1</text><rect x="1390" y="43" width="150" height="62" rx="18" fill="#09100f" fill-opacity="0.9" stroke="#556B2F" stroke-width="2"/><text x="1465" y="83" font-family="DejaVu Sans, Arial, sans-serif" font-size="28" font-weight="700" fill="#f4f6f2" text-anchor="middle">05/10</text><text x="58" y="146" font-family="DejaVu Sans, Arial, sans-serif" font-size="49" font-weight="700" fill="#f4f6f2" text-anchor="start">Типи даних визначають форму аналізу</text><text x="60" y="186" font-family="DejaVu Sans, Arial, sans-serif" font-size="23" font-weight="400" fill="#bdc5bc" text-anchor="start">Не втрачайте вимір, який є суттю аналітичного питання.</text><rect x="78" y="285" width="1445" height="480" rx="26" fill="#0d1716" fill-opacity="0.93" stroke="#7e8b72" stroke-width="2"/><rect x="110" y="385" width="440" height="145" rx="20" fill="#111d1b" fill-opacity="0.98" stroke="#556B2F" stroke-width="3"/><text x="130" y="425" font-family="DejaVu Sans, Arial, sans-serif" font-size="22" font-weight="700" fill="#f4f6f2" text-anchor="start">ТАБЛИЧНІ</text><text x="130" y="461" font-family="DejaVu Sans, Arial, sans-serif" font-size="16" font-weight="700" fill="#5dc4cc" text-anchor="start">records / attributes</text><text x="130" y="498" font-family="DejaVu Sans, Arial, sans-serif" font-size="16" font-weight="400" fill="#bdc5bc" text-anchor="start">опис · regression · class</text><rect x="600" y="385" width="440" height="145" rx="20" fill="#111d1b" fill-opacity="0.98" stroke="#556B2F" stroke-width="3"/><text x="620" y="425" font-family="DejaVu Sans, Arial, sans-serif" font-size="22" font-weight="700" fill="#f4f6f2" text-anchor="start">ЧАСОВІ РЯДИ</text><text x="620" y="461" font-family="DejaVu Sans, Arial, sans-serif" font-size="16" font-weight="700" fill="#5dc4cc" text-anchor="start">time-indexed</text><text x="620" y="498" font-family="DejaVu Sans, Arial, sans-serif" font-size="16" font-weight="400" fill="#bdc5bc" text-anchor="start">trend · change · forecast</text><rect x="1090" y="385" width="440" height="145" rx="20" fill="#111d1b" fill-opacity="0.98" stroke="#556B2F" stroke-width="3"/><text x="1110" y="425" font-family="DejaVu Sans, Arial, sans-serif" font-size="22" font-weight="700" fill="#f4f6f2" text-anchor="start">ГЕОПРОСТОРОВІ</text><text x="1110" y="461" font-family="DejaVu Sans, Arial, sans-serif" font-size="16" font-weight="700" fill="#5dc4cc" text-anchor="start">lat / lon / geometry</text><text x="1110" y="498" font-family="DejaVu Sans, Arial, sans-serif" font-size="16" font-weight="400" fill="#bdc5bc" text-anchor="start">density · distance · map</text><rect x="110" y="565" width="440" height="145" rx="20" fill="#111d1b" fill-opacity="0.98" stroke="#556B2F" stroke-width="3"/><text x="130" y="605" font-family="DejaVu Sans, Arial, sans-serif" font-size="22" font-weight="700" fill="#f4f6f2" text-anchor="start">ТЕКСТ</text><text x="130" y="641" font-family="DejaVu Sans, Arial, sans-serif" font-size="16" font-weight="700" fill="#5dc4cc" text-anchor="start">reports / messages</text><text x="130" y="678" font-family="DejaVu Sans, Arial, sans-serif" font-size="16" font-weight="400" fill="#bdc5bc" text-anchor="start">keywords · entities · topics</text><rect x="600" y="565" width="440" height="145" rx="20" fill="#111d1b" fill-opacity="0.98" stroke="#556B2F" stroke-width="3"/><text x="620" y="605" font-family="DejaVu Sans, Arial, sans-serif" font-size="22" font-weight="700" fill="#f4f6f2" text-anchor="start">ЗОБРАЖЕННЯ</text><text x="620" y="641" font-family="DejaVu Sans, Arial, sans-serif" font-size="16" font-weight="700" fill="#5dc4cc" text-anchor="start">EO/IR / photos</text><text x="620" y="678" font-family="DejaVu Sans, Arial, sans-serif" font-size="16" font-weight="400" fill="#bdc5bc" text-anchor="start">detection · segmentation</text><rect x="1090" y="565" width="440" height="145" rx="20" fill="#111d1b" fill-opacity="0.98" stroke="#556B2F" stroke-width="3"/><text x="1110" y="605" font-family="DejaVu Sans, Arial, sans-serif" font-size="22" font-weight="700" fill="#f4f6f2" text-anchor="start">ГРАФИ</text><text x="1110" y="641" font-family="DejaVu Sans, Arial, sans-serif" font-size="16" font-weight="700" fill="#5dc4cc" text-anchor="start">nodes / edges</text><text x="1110" y="678" font-family="DejaVu Sans, Arial, sans-serif" font-size="16" font-weight="400" fill="#bdc5bc" text-anchor="start">centrality · communities</text><rect x="55" y="828" width="1490" height="48" rx="14" fill="#09100f" fill-opacity="0.92" stroke="#182420" stroke-width="1"/><text x="80" y="860" font-family="DejaVu Sans, Arial, sans-serif" font-size="20" font-weight="700" fill="#f4f6f2" text-anchor="start">Формат даних + тип питання визначають representation, метрику та допустимий метод.</text></svg>